<?xml version="1.0" encoding="utf-8"?>
<!-- Generator: Adobe Illustrator 24.0.2, SVG Export Plug-In . SVG Version: 6.00 Build 0)  -->
<svg version="1.1" id="Capa_1" xmlns="http://www.w3.org/2000/svg" xmlns:xlink="http://www.w3.org/1999/xlink" x="0px" y="0px"
	 viewBox="0 0 23.4 23.4" style="enable-background:new 0 0 23.4 23.4;" xml:space="preserve">
<style type="text/css">
	.st0{fill:#FFAC0A;}
</style>
<g id="clock_1_" transform="translate(0 3)">
	<path id="Shape" class="st0" d="M11.7,20.4C5.2,20.4,0,15.1,0,8.7C0,4,2.8-0.3,7.1-2.1c6-2.5,12.8,0.4,15.3,6.3
		c2.4,5.9-0.3,12.7-6.2,15.2C14.8,20.1,13.2,20.4,11.7,20.4z M10.1,1.2c-0.1,0-0.1,0-0.2,0c-0.4,0.1-0.7,0.6-0.6,1c0,0,0,0,0,0
		l2.1,8c0.1,0.4,0.6,0.7,1,0.6c0,0,0,0,0,0l0,0l0,0h0l0,0l4.8-1.3c0.4-0.1,0.7-0.5,0.6-1c-0.1-0.4-0.5-0.7-1-0.6c0,0,0,0,0,0L12.8,9
		l-1.9-7.2C10.8,1.4,10.4,1.2,10.1,1.2z"/>
</g>
</svg>
