<?xml version="1.0" encoding="utf-8"?>
<!-- Generator: Adobe Illustrator 24.0.2, SVG Export Plug-In . SVG Version: 6.00 Build 0)  -->
<svg version="1.1" id="Capa_1" xmlns="http://www.w3.org/2000/svg" xmlns:xlink="http://www.w3.org/1999/xlink" x="0px" y="0px"
	 viewBox="0 0 17.3 11.3" style="enable-background:new 0 0 17.3 11.3;" xml:space="preserve">
<style type="text/css">
	.st0{fill:#FFFFFF;stroke:#FFFFFF;stroke-width:1.3;stroke-miterlimit:10;}
</style>
<g id="controls_1_" transform="translate(0.65 0.65)">
	<path id="Shape" class="st0" d="M2.1,4C1,4,0,3.1,0,2c0-1.1,1-2,2.1-2c1,0,1.9,0.7,2,1.7h11.6C15.9,1.7,16,1.8,16,2
		s-0.1,0.3-0.3,0.3c0,0,0,0,0,0H4.1C4,3.3,3.1,4,2.1,4z M2.1,0.6C1.3,0.6,0.6,1.2,0.6,2c0,0.8,0.7,1.4,1.5,1.4
		c0.8,0,1.5-0.6,1.5-1.4C3.5,1.2,2.9,0.6,2.1,0.6z"/>
	<path id="Shape-2" class="st0" d="M8.1,10c-1,0-1.9-0.7-2.1-1.7H0.3C0.1,8.3,0,8.2,0,8.1s0.1-0.3,0.3-0.3c0,0,0,0,0,0h5.6
		C6.1,6.7,7,6,8.1,6c1.1,0,2,0.7,2.1,1.8h5.5C15.9,7.8,16,7.9,16,8c0,0.2-0.1,0.3-0.3,0.3c0,0,0,0,0,0h-5.5C10,9.3,9.1,10,8.1,10z
		 M8.1,6.6C7.2,6.5,6.5,7.2,6.5,8c0,0.8,0.7,1.5,1.5,1.4c0.8,0,1.5-0.6,1.5-1.4C9.6,7.2,8.9,6.5,8.1,6.6L8.1,6.6z"/>
</g>
</svg>
