<?xml version="1.0" encoding="utf-8"?>
<!-- Generator: Adobe Illustrator 24.0.2, SVG Export Plug-In . SVG Version: 6.00 Build 0)  -->
<svg version="1.1" id="Send_Button" xmlns="http://www.w3.org/2000/svg" xmlns:xlink="http://www.w3.org/1999/xlink" x="0px"
	 y="0px" viewBox="0 0 34 33" width="34" height="33" style="enable-background:new 0 0 34 33;" xml:space="preserve">
<style type="text/css">
	.st0{fill:#C9C9C9;}
	.st1{fill:#FFFFFF;}
</style>
<path id="Base-2" class="st0" d="M16.5,0h1C26.6,0,34,7.4,34,16.5l0,0C34,25.6,26.6,33,17.5,33h-1C7.4,33,0,25.6,0,16.5l0,0
	C0,7.4,7.4,0,16.5,0z"/>
<path id="Send-2" class="st1" d="M23.9,10.1c-0.1-0.1-0.2-0.1-0.2,0L9.1,16.8C9,16.9,9,17,9,17.1c0,0,0.1,0.1,0.1,0.1l4.1,2
	c0.1,0,0.2,0,0.2,0l4-3l-3.1,3.3c0,0-0.1,0.1-0.1,0.2l0.3,4.1c0,0.1,0.1,0.2,0.2,0.2c0.1,0,0.2,0,0.2-0.1l2.2-2.6l2.7,1.3
	c0.1,0,0.1,0,0.2,0c0.1,0,0.1-0.1,0.1-0.1L24,10.3C24,10.2,24,10.1,23.9,10.1z"/>
</svg>
