<svg id="Capa_1" data-name="Capa 1" xmlns="http://www.w3.org/2000/svg" viewBox="0 0 33 22"><defs><style>.cls-1{opacity:0.41;}</style></defs><title>paper_plane_icon</title><g id="paper-plane" class="cls-1"><path id="Shape" d="M24.76,22a.53.53,0,0,1-.3-.09l-6.37-4.15L12,21.83a.52.52,0,0,1-.39.17h0l-.15,0h0l-.11-.05h0l-.08-.09h0l0,0h0v0h0a.47.47,0,0,1-.06-.15.41.41,0,0,1,0-.19h0l-1.6-8.91L.29,7.63a.55.55,0,0,1,.15-1L32.33,0h.29l.13.07h0l.13.13h0v0h0A.44.44,0,0,1,33,.45v0h0A.49.49,0,0,1,33,.6v0h0v0h0a.14.14,0,0,1,0,.06l-7.69,20.9a.54.54,0,0,1-.51.36ZM31.3,2.07,14.73,14.27l1.28.84,8.47,5.5ZM14.08,15.16l-1.5,4.95,2.23-1.49,2.27-1.51-.67-.43Zm12.55-11L10.54,12.4l1.2,6.65,1.51-4.91h0a.93.93,0,0,1,.05-.1l0,0,0,0h0l0-.05,13.18-9.7Zm2-2.25L2.16,7.38l7.77,4.1Z" transform="translate(0 0)"/></g></svg>