<svg xmlns="http://www.w3.org/2000/svg" width="32.977" height="22" viewBox="0 0 32.977 22">
  <path id="Shape" d="M24.76,22a.53.53,0,0,1-.3-.09l-6.37-4.15L12,21.83a.52.52,0,0,1-.39.17h-.15l-.11-.05h0l-.08-.09h0a.47.47,0,0,1-.06-.15.41.41,0,0,1,0-.19h0l-1.6-8.91L.29,7.63a.55.55,0,0,1,.15-1L32.33,0h.29l.13.07h0l.13.13h0A.44.44,0,0,1,33,.45h0A.49.49,0,0,1,33,.6h0a.14.14,0,0,1,0,.06l-7.69,20.9a.54.54,0,0,1-.51.36ZM14.08,15.16l-1.5,4.95,2.23-1.49,2.27-1.51-.67-.43Zm12.55-11L10.54,12.4l1.2,6.65,1.51-4.91h0a.93.93,0,0,1,.05-.1h0v-.05l13.18-9.7Z" transform="translate(-0.029)" fill="#2b2f43"/>
</svg>
