<?xml version="1.0" encoding="utf-8"?>
<!-- Generator: Adobe Illustrator 23.0.2, SVG Export Plug-In . SVG Version: 6.00 Build 0)  -->
<svg version="1.1" id="Capa_1" xmlns="http://www.w3.org/2000/svg" xmlns:xlink="http://www.w3.org/1999/xlink" x="0px" y="0px"
	 viewBox="0 0 25.7 19.5" style="enable-background:new 0 0 25.7 19.5;" xml:space="preserve">
<style type="text/css">
	.st0{clip-path:url(#SVGID_2_);}
	.st1{clip-path:url(#SVGID_4_);}
	.st2{fill:#FFFFFF;}
</style>
<g>
	<defs>
		<path id="SVGID_1_" d="M24.3,16.7c0.7,0,1.3,0.6,1.3,1.3c0,0,0,0,0,0v0.2c0,0.7-0.6,1.3-1.3,1.3H11.5c-0.7,0-1.3-0.6-1.3-1.3
			c0,0,0,0,0,0V18c0-0.7,0.6-1.3,1.3-1.3H24.3z M24.4,8.4c0.7,0,1.3,0.6,1.3,1.3c0,0,0,0,0,0v0.2c0,0.7-0.6,1.3-1.3,1.3h-23
			c-0.7,0-1.3-0.6-1.3-1.3c0,0,0,0,0,0V9.6c0-0.7,0.6-1.3,1.3-1.3H24.4z M14,0c0.7,0,1.3,0.6,1.3,1.3c0,0,0,0,0,0v0.2
			c0,0.7-0.6,1.3-1.3,1.3H1.3C0.6,2.8,0,2.2,0,1.5c0,0,0,0,0,0V1.3C0,0.6,0.6,0,1.3,0H14z"/>
	</defs>
	<clipPath id="SVGID_2_">
		<use xlink:href="#SVGID_1_"  style="overflow:visible;"/>
	</clipPath>
	<g id="Grupo_25" class="st0">
		<g>
			<defs>
				<rect id="SVGID_3_" x="-15.3" y="-20.9" width="56.2" height="61.3"/>
			</defs>
			<clipPath id="SVGID_4_">
				<use xlink:href="#SVGID_3_"  style="overflow:visible;"/>
			</clipPath>
			<g id="Grupo_24" transform="translate(-15.321 -20.892)" class="st1">
				<path id="Trazado_57" class="st2" d="M8.9,14.5h38.4v32.3H8.9V14.5z"/>
			</g>
		</g>
	</g>
</g>
</svg>
