<svg id="Capa_1" data-name="Capa 1" xmlns="http://www.w3.org/2000/svg" viewBox="0 0 26 22"><defs><style>.cls-1{opacity:0.31;}</style></defs><title>wallet_icon</title><g id="wallet" class="cls-1"><path id="Shape" d="M21.18,22H1.86A1.84,1.84,0,0,1,0,20.17v-18A2.25,2.25,0,0,1,2.26,0h16.5a1.84,1.84,0,0,1,1.85,1.83V3.19h.57A2.74,2.74,0,0,1,23.93,5.9V9.57h.61A1.45,1.45,0,0,1,26,11v3.19a1.44,1.44,0,0,1-1.45,1.43h-.62v3.67A2.73,2.73,0,0,1,21.18,22ZM1.27,4.23V20.17a.58.58,0,0,0,.58.56H21.17a1.46,1.46,0,0,0,1.48-1.45V15.62H18.28a1.44,1.44,0,0,1-1.45-1.43V11a1.45,1.45,0,0,1,1.45-1.43h4.37V5.9a1.46,1.46,0,0,0-1.48-1.45H2.26A2.27,2.27,0,0,1,1.27,4.23Zm17,6.6a.18.18,0,0,0-.17.17v3.19a.18.18,0,0,0,.17.17h6.26a.16.16,0,0,0,.17-.17h0V11a.18.18,0,0,0-.18-.17Zm-16-9.57a1,1,0,1,0,0,1.93H19.32V1.82a.58.58,0,0,0-.58-.56Z" transform="translate(0 0)"/></g></svg>