<svg xmlns="http://www.w3.org/2000/svg" width="26" height="22" viewBox="0 0 26 22">
  <path id="Shape" d="M21.18,22H1.86A1.84,1.84,0,0,1,0,20.17v-18A2.25,2.25,0,0,1,2.26,0h16.5a1.84,1.84,0,0,1,1.85,1.83V3.19h.57A2.74,2.74,0,0,1,23.93,5.9V9.57h.61A1.45,1.45,0,0,1,26,11v3.19a1.44,1.44,0,0,1-1.45,1.43h-.62v3.67A2.73,2.73,0,0,1,21.18,22ZM18.27,10.83a.18.18,0,0,0-.17.17v3.19a.18.18,0,0,0,.17.17h6.26a.16.16,0,0,0,.17-.17h0V11a.18.18,0,0,0-.18-.17Zm-16-9.57a1,1,0,1,0,0,1.93H19.32V1.82a.58.58,0,0,0-.58-.56Z" transform="translate(0 0)" fill="#2b2f43"/>
</svg>
